# xmcd
#
# Track frame offsets:
#   150
#   12034
#   25142
#   43877
#   56993
#   74781
#   88506
#   99622
#   110873
#   120605
#   134302
#   145577
#   159425
#   174910
#   190912
#   206486
#   224576
#   235950
#   251415
#   265620
#   280685
#   294760
#   306637
#   321827
#   334008
#
# Disc length: 4602 seconds
#
# Revision: 0
# Processed by: cddbd v1.4PL0 Copyright (c) Steve Scherf et al.
# Submitted via: uFREEDB ActiveX Control 1.5
#
DISCID=7811f819
DTITLE=Tião Carreiro and Pardinho - Só Pagodes 2
DYEAR=2003
DGENRE=Country
TTITLE0=Rancho Dos Ipês
TTITLE1=Pula Pula
TTITLE2=Filho Da Liberdade
TTITLE3=Navalha Na Carne
TTITLE4=A Coisa Tá Feia
TTITLE5=O Mundo No Avesso
TTITLE6=A Majestade "O Pagode"
TTITLE7=Osso Duro De Roer
TTITLE8=Onça De Paletó
TTITLE9=Rei Do Pagode
TTITLE10=Pagode Do Pai Tomé
TTITLE11=Pagode
TTITLE12=Faca Que Não Corta
TTITLE13=Azulão Do Reino Encantado
TTITLE14=Confiança
TTITLE15=A Beleza Do Ponteio
TTITLE16=A Viola E O Violeiro
TTITLE17=Chega De Sujeira
TTITLE18=Mineirinho De Fibra
TTITLE19=Cerne De Aroeira
TTITLE20=A Grande Cilada
TTITLE21=Viola Divina
TTITLE22=O Tesouro É Do Patrão
TTITLE23=Minas Gerais
TTITLE24=Final Dos Tempos
EXTD=
EXTT0=
EXTT1=
EXTT2=
EXTT3=
EXTT4=
EXTT5=
EXTT6=
EXTT7=
EXTT8=
EXTT9=
EXTT10=
EXTT11=
EXTT12=
EXTT13=
EXTT14=
EXTT15=
EXTT16=
EXTT17=
EXTT18=
EXTT19=
EXTT20=
EXTT21=
EXTT22=
EXTT23=
EXTT24=
PLAYORDER=
